<?xml version="1.0" encoding="UTF-8" standalone="no"?>
<svg
   xmlns="http://www.w3.org/2000/svg"
   width="38.875793mm"
   height="12.269484mm"
   viewBox="0 0 38.875793 12.269484"
   version="1.1"
   id="svg8"
>
  <defs
     id="defs2">
    <style
       id="style2">
      .cls-1 {
      fill: #1a1a1a;
      }

      .cls-1, .cls-2 {
      stroke-width: 0px;
      }

      .cls-2 {
      fill: #d4ff00;
      }
    </style>
  </defs>
  <g
     id="layer1"
     transform="translate(-90.091175,-228.65466)">
    <g
       style="fill:none"
       id="g853"
       transform="matrix(0.26458333,0,0,0.26458333,90.259221,226.57782)">
      <path
         d="m 70.0117,49.3505 c 7.1681,0 12.2613,-3.7357 12.2613,-10.0396 0,-6.9109 -5.6119,-8.6386 -10.6108,-10.1329 -5.1403,-1.5409 -5.942,-2.5682 -5.942,-4.0625 0,-1.3074 1.179,-2.4748 3.5369,-2.4748 3.0182,0 4.5744,1.4475 5.7062,3.7823 l 6.3665,-3.6889 c -2.4051,-4.8097 -6.6494,-7.3779 -12.0727,-7.3779 -5.7062,0 -11.0824,3.6422 -11.0824,9.9461 0,6.2572 4.8103,8.592 9.7148,9.9461 4.9517,1.3542 6.8381,2.148 6.8381,4.1559 0,1.2608 -0.8961,2.6617 -4.4802,2.6617 -3.7255,0 -5.7534,-1.8212 -6.9323,-4.5295 l -6.508,3.7356 c 1.8392,4.8097 6.2722,8.0784 13.2046,8.0784 z"
         fill="#ffffff"
         id="path833" />
      <path
         d="M 99.1731,16.0099 H 85.9686 v 32.6868 h 13.2045 c 9.1019,0 16.0339,-7.0977 16.0339,-16.3434 0,-9.2457 -6.932,-16.3434 -16.0339,-16.3434 z m 0,25.4957 H 93.514 V 23.201 h 5.6591 c 5.1879,0 8.7719,3.5489 8.7719,9.1523 0,5.6035 -3.584,9.1523 -8.7719,9.1523 z"
         fill="#ffffff"
         id="path835" />
      <path
         d="m 146.297,48.6967 -11.602,-16.7636 11.13,-15.9232 h -8.583 L 127.15,30.2053 V 16.0099 h -7.545 v 32.6868 h 7.545 V 33.5674 l 10.564,15.1293 z"
         fill="#ffffff"
         id="path837" />
      <g
         id="g10"
         transform="matrix(0.32719151,0,0,0.32719151,-32.873313,-17.655119)">
        <rect
           class="cls-2"
           x="98.529999"
           y="77.949997"
           width="141.73"
           height="141.73"
           id="rect6" />
        <polygon
           class="cls-1"
           points="188.23,120.56 169.4,120.56 169.4,101.73 207.07,101.73 207.07,195.91 188.23,195.91 188.23,177.07 131.72,177.07 131.72,120.56 150.56,120.56 150.56,139.4 188.23,139.4 "
           id="polygon8" />
      </g>
    </g>
  </g>
</svg>
